<svg id="visual" viewBox="0 0 1920 1080" width="1920" height="1080" xmlns="http://www.w3.org/2000/svg" xmlns:xlink="http://www.w3.org/1999/xlink" version="1.1"><g stroke-width="1" stroke-linejoin="bevel"><path d="M993 502L981 406L918 439Z" fill="#00101c" stroke="#00101c"></path><path d="M918 439L824 502L993 502Z" fill="#008674" stroke="#008674"></path><path d="M981 406L850 353L918 439Z" fill="#007872" stroke="#007872"></path><path d="M918 439L850 353L824 502Z" fill="#053543" stroke="#053543"></path><path d="M866 606L1081 569L993 502Z" fill="#00101c" stroke="#00101c"></path><path d="M993 502L1147 538L981 406Z" fill="#009473" stroke="#009473"></path><path d="M1174 357L982 278L981 406Z" fill="#006b6d" stroke="#006b6d"></path><path d="M981 406L982 278L850 353Z" fill="#02424f" stroke="#02424f"></path><path d="M824 502L866 606L993 502Z" fill="#004f5b" stroke="#004f5b"></path><path d="M1081 569L1147 538L993 502Z" fill="#006b6d" stroke="#006b6d"></path><path d="M873 238L813 331L850 353Z" fill="#005d65" stroke="#005d65"></path><path d="M850 353L813 331L824 502Z" fill="#007872" stroke="#007872"></path><path d="M824 502L797 569L866 606Z" fill="#006b6d" stroke="#006b6d"></path><path d="M652 495L797 569L824 502Z" fill="#02424f" stroke="#02424f"></path><path d="M1147 538L1174 357L981 406Z" fill="#00101c" stroke="#00101c"></path><path d="M982 278L873 238L850 353Z" fill="#02424f" stroke="#02424f"></path><path d="M1147 538L1221 435L1174 357Z" fill="#006b6d" stroke="#006b6d"></path><path d="M1034 773L1115 668L1081 569Z" fill="#007872" stroke="#007872"></path><path d="M1081 569L1115 668L1147 538Z" fill="#007872" stroke="#007872"></path><path d="M1147 538L1361 531L1221 435Z" fill="#005d65" stroke="#005d65"></path><path d="M1322 277L1140 262L1174 357Z" fill="#006b6d" stroke="#006b6d"></path><path d="M1174 357L1140 262L982 278Z" fill="#007872" stroke="#007872"></path><path d="M982 278L1068 179L873 238Z" fill="#008674" stroke="#008674"></path><path d="M752 722L852 723L866 606Z" fill="#061c29" stroke="#061c29"></path><path d="M866 606L1034 773L1081 569Z" fill="#006b6d" stroke="#006b6d"></path><path d="M1234 784L1184 654L1115 668Z" fill="#004f5b" stroke="#004f5b"></path><path d="M1115 668L1184 654L1147 538Z" fill="#02424f" stroke="#02424f"></path><path d="M1140 262L1068 179L982 278Z" fill="#053543" stroke="#053543"></path><path d="M873 238L762 244L813 331Z" fill="#005d65" stroke="#005d65"></path><path d="M644 391L652 495L824 502Z" fill="#005d65" stroke="#005d65"></path><path d="M845 85L762 244L873 238Z" fill="#062836" stroke="#062836"></path><path d="M644 391L824 502L813 331Z" fill="#061c29" stroke="#061c29"></path><path d="M797 569L752 722L866 606Z" fill="#008674" stroke="#008674"></path><path d="M852 723L1034 773L866 606Z" fill="#053543" stroke="#053543"></path><path d="M762 244L644 391L813 331Z" fill="#009473" stroke="#009473"></path><path d="M627 608L752 722L797 569Z" fill="#005d65" stroke="#005d65"></path><path d="M852 723L953 833L1034 773Z" fill="#062836" stroke="#062836"></path><path d="M1140 262L1124 121L1068 179Z" fill="#062836" stroke="#062836"></path><path d="M1068 179L845 85L873 238Z" fill="#009473" stroke="#009473"></path><path d="M1322 277L1124 121L1140 262Z" fill="#009473" stroke="#009473"></path><path d="M652 495L627 608L797 569Z" fill="#008674" stroke="#008674"></path><path d="M542 579L627 608L652 495Z" fill="#053543" stroke="#053543"></path><path d="M732 879L953 833L852 723Z" fill="#006b6d" stroke="#006b6d"></path><path d="M1361 531L1337 363L1221 435Z" fill="#02424f" stroke="#02424f"></path><path d="M1221 435L1337 363L1174 357Z" fill="#00101c" stroke="#00101c"></path><path d="M956 0L845 85L1068 179Z" fill="#00101c" stroke="#00101c"></path><path d="M762 244L628 209L644 391Z" fill="#006b6d" stroke="#006b6d"></path><path d="M1337 363L1322 277L1174 357Z" fill="#007872" stroke="#007872"></path><path d="M1299 718L1328 626L1184 654Z" fill="#007872" stroke="#007872"></path><path d="M1184 654L1328 626L1147 538Z" fill="#007872" stroke="#007872"></path><path d="M1234 784L1115 668L1034 773Z" fill="#062836" stroke="#062836"></path><path d="M1328 626L1361 531L1147 538Z" fill="#062836" stroke="#062836"></path><path d="M627 608L606 659L752 722Z" fill="#004f5b" stroke="#004f5b"></path><path d="M936 965L1010 881L953 833Z" fill="#00101c" stroke="#00101c"></path><path d="M542 579L606 659L627 608Z" fill="#006b6d" stroke="#006b6d"></path><path d="M755 68L628 209L762 244Z" fill="#062836" stroke="#062836"></path><path d="M644 391L549 494L652 495Z" fill="#008674" stroke="#008674"></path><path d="M487 394L549 494L644 391Z" fill="#006b6d" stroke="#006b6d"></path><path d="M1152 889L1234 784L1034 773Z" fill="#007872" stroke="#007872"></path><path d="M1234 784L1299 718L1184 654Z" fill="#005d65" stroke="#005d65"></path><path d="M1328 626L1464 646L1361 531Z" fill="#008674" stroke="#008674"></path><path d="M732 879L852 723L752 722Z" fill="#006b6d" stroke="#006b6d"></path><path d="M953 833L1010 881L1034 773Z" fill="#02424f" stroke="#02424f"></path><path d="M1412 343L1370 291L1337 363Z" fill="#02424f" stroke="#02424f"></path><path d="M1337 363L1370 291L1322 277Z" fill="#006b6d" stroke="#006b6d"></path><path d="M1329 82L1183 0L1124 121Z" fill="#02424f" stroke="#02424f"></path><path d="M549 494L542 579L652 495Z" fill="#02424f" stroke="#02424f"></path><path d="M825 0L755 68L845 85Z" fill="#009473" stroke="#009473"></path><path d="M845 85L755 68L762 244Z" fill="#062836" stroke="#062836"></path><path d="M485 793L688 813L606 659Z" fill="#006b6d" stroke="#006b6d"></path><path d="M606 659L688 813L752 722Z" fill="#007872" stroke="#007872"></path><path d="M998 0L1068 179L1124 121Z" fill="#004f5b" stroke="#004f5b"></path><path d="M998 0L956 0L1068 179Z" fill="#00101c" stroke="#00101c"></path><path d="M1183 0L998 0L1124 121Z" fill="#009473" stroke="#009473"></path><path d="M1361 531L1412 343L1337 363Z" fill="#008674" stroke="#008674"></path><path d="M936 965L1063 911L1010 881Z" fill="#009473" stroke="#009473"></path><path d="M1010 881L1063 911L1034 773Z" fill="#007872" stroke="#007872"></path><path d="M1063 911L1152 889L1034 773Z" fill="#062836" stroke="#062836"></path><path d="M1465 750L1464 646L1299 718Z" fill="#062836" stroke="#062836"></path><path d="M956 0L825 0L845 85Z" fill="#00101c" stroke="#00101c"></path><path d="M688 813L732 879L752 722Z" fill="#007872" stroke="#007872"></path><path d="M628 209L487 394L644 391Z" fill="#009473" stroke="#009473"></path><path d="M549 494L367 538L542 579Z" fill="#006b6d" stroke="#006b6d"></path><path d="M1127 1080L1176 898L1152 889Z" fill="#00101c" stroke="#00101c"></path><path d="M1152 889L1176 898L1234 784Z" fill="#053543" stroke="#053543"></path><path d="M1329 82L1322 277L1453 163Z" fill="#006b6d" stroke="#006b6d"></path><path d="M1329 82L1124 121L1322 277Z" fill="#053543" stroke="#053543"></path><path d="M808 971L936 965L953 833Z" fill="#061c29" stroke="#061c29"></path><path d="M1127 1080L1223 951L1176 898Z" fill="#005d65" stroke="#005d65"></path><path d="M1453 163L1322 277L1370 291Z" fill="#009473" stroke="#009473"></path><path d="M1299 718L1464 646L1328 626Z" fill="#005d65" stroke="#005d65"></path><path d="M1361 531L1521 506L1412 343Z" fill="#008674" stroke="#008674"></path><path d="M1392 839L1299 718L1234 784Z" fill="#00101c" stroke="#00101c"></path><path d="M755 68L606 66L628 209Z" fill="#008674" stroke="#008674"></path><path d="M628 209L466 193L487 394Z" fill="#061c29" stroke="#061c29"></path><path d="M694 0L606 66L755 68Z" fill="#007872" stroke="#007872"></path><path d="M825 0L694 0L755 68Z" fill="#00101c" stroke="#00101c"></path><path d="M732 879L808 971L953 833Z" fill="#00101c" stroke="#00101c"></path><path d="M606 66L510 156L628 209Z" fill="#062836" stroke="#062836"></path><path d="M1530 563L1521 506L1361 531Z" fill="#006b6d" stroke="#006b6d"></path><path d="M1486 203L1453 163L1370 291Z" fill="#004f5b" stroke="#004f5b"></path><path d="M1127 1080L1152 889L1063 911Z" fill="#009473" stroke="#009473"></path><path d="M1176 898L1223 951L1234 784Z" fill="#009473" stroke="#009473"></path><path d="M382 280L416 377L487 394Z" fill="#007872" stroke="#007872"></path><path d="M487 394L367 538L549 494Z" fill="#004f5b" stroke="#004f5b"></path><path d="M407 129L466 193L510 156Z" fill="#062836" stroke="#062836"></path><path d="M510 156L466 193L628 209Z" fill="#009473" stroke="#009473"></path><path d="M1517 306L1370 291L1412 343Z" fill="#009473" stroke="#009473"></path><path d="M1521 506L1517 306L1412 343Z" fill="#008674" stroke="#008674"></path><path d="M1223 951L1392 839L1234 784Z" fill="#053543" stroke="#053543"></path><path d="M1464 646L1530 563L1361 531Z" fill="#053543" stroke="#053543"></path><path d="M542 579L470 739L606 659Z" fill="#005d65" stroke="#005d65"></path><path d="M688 813L664 952L732 879Z" fill="#062836" stroke="#062836"></path><path d="M732 879L664 952L808 971Z" fill="#053543" stroke="#053543"></path><path d="M381 704L470 739L542 579Z" fill="#008674" stroke="#008674"></path><path d="M1544 720L1530 563L1464 646Z" fill="#062836" stroke="#062836"></path><path d="M1521 506L1603 505L1517 306Z" fill="#008674" stroke="#008674"></path><path d="M1517 306L1486 203L1370 291Z" fill="#004f5b" stroke="#004f5b"></path><path d="M1392 839L1465 750L1299 718Z" fill="#053543" stroke="#053543"></path><path d="M556 968L664 952L688 813Z" fill="#00101c" stroke="#00101c"></path><path d="M1441 0L1338 0L1329 82Z" fill="#005d65" stroke="#005d65"></path><path d="M1329 82L1338 0L1183 0Z" fill="#062836" stroke="#062836"></path><path d="M1441 0L1329 82L1453 163Z" fill="#004f5b" stroke="#004f5b"></path><path d="M470 739L485 793L606 659Z" fill="#02424f" stroke="#02424f"></path><path d="M348 520L367 538L416 377Z" fill="#009473" stroke="#009473"></path><path d="M416 377L367 538L487 394Z" fill="#005d65" stroke="#005d65"></path><path d="M470 739L411 803L485 793Z" fill="#053543" stroke="#053543"></path><path d="M466 193L382 280L487 394Z" fill="#02424f" stroke="#02424f"></path><path d="M606 66L556 0L510 156Z" fill="#00101c" stroke="#00101c"></path><path d="M466 193L407 129L382 280Z" fill="#00101c" stroke="#00101c"></path><path d="M694 0L556 0L606 66Z" fill="#053543" stroke="#053543"></path><path d="M259 432L348 520L416 377Z" fill="#02424f" stroke="#02424f"></path><path d="M367 538L381 704L542 579Z" fill="#006b6d" stroke="#006b6d"></path><path d="M857 1080L1014 1080L936 965Z" fill="#005d65" stroke="#005d65"></path><path d="M936 965L1014 1080L1063 911Z" fill="#02424f" stroke="#02424f"></path><path d="M857 1080L936 965L808 971Z" fill="#005d65" stroke="#005d65"></path><path d="M806 1080L857 1080L808 971Z" fill="#004f5b" stroke="#004f5b"></path><path d="M1580 795L1544 720L1465 750Z" fill="#062836" stroke="#062836"></path><path d="M1465 750L1544 720L1464 646Z" fill="#02424f" stroke="#02424f"></path><path d="M1530 563L1603 505L1521 506Z" fill="#009473" stroke="#009473"></path><path d="M218 602L381 704L367 538Z" fill="#061c29" stroke="#061c29"></path><path d="M485 793L556 968L688 813Z" fill="#009473" stroke="#009473"></path><path d="M1678 624L1603 505L1530 563Z" fill="#02424f" stroke="#02424f"></path><path d="M1615 290L1513 122L1486 203Z" fill="#008674" stroke="#008674"></path><path d="M1615 290L1486 203L1517 306Z" fill="#005d65" stroke="#005d65"></path><path d="M1486 203L1513 122L1453 163Z" fill="#061c29" stroke="#061c29"></path><path d="M1014 1080L1127 1080L1063 911Z" fill="#006b6d" stroke="#006b6d"></path><path d="M1223 951L1403 962L1392 839Z" fill="#005d65" stroke="#005d65"></path><path d="M1392 839L1501 907L1465 750Z" fill="#02424f" stroke="#02424f"></path><path d="M641 1080L806 1080L664 952Z" fill="#006b6d" stroke="#006b6d"></path><path d="M664 952L806 1080L808 971Z" fill="#006b6d" stroke="#006b6d"></path><path d="M556 0L407 129L510 156Z" fill="#02424f" stroke="#02424f"></path><path d="M381 704L411 803L470 739Z" fill="#005d65" stroke="#005d65"></path><path d="M411 803L556 968L485 793Z" fill="#008674" stroke="#008674"></path><path d="M1513 122L1441 0L1453 163Z" fill="#005d65" stroke="#005d65"></path><path d="M1379 1080L1403 962L1223 951Z" fill="#053543" stroke="#053543"></path><path d="M1603 505L1615 290L1517 306Z" fill="#005d65" stroke="#005d65"></path><path d="M1513 122L1482 0L1441 0Z" fill="#007872" stroke="#007872"></path><path d="M1127 1080L1241 1080L1223 951Z" fill="#007872" stroke="#007872"></path><path d="M1668 0L1482 0L1513 122Z" fill="#005d65" stroke="#005d65"></path><path d="M1403 962L1501 907L1392 839Z" fill="#02424f" stroke="#02424f"></path><path d="M1544 720L1678 624L1530 563Z" fill="#00101c" stroke="#00101c"></path><path d="M1528 1080L1501 907L1403 962Z" fill="#009473" stroke="#009473"></path><path d="M1501 907L1580 795L1465 750Z" fill="#006b6d" stroke="#006b6d"></path><path d="M556 968L641 1080L664 952Z" fill="#009473" stroke="#009473"></path><path d="M492 1080L641 1080L556 968Z" fill="#006b6d" stroke="#006b6d"></path><path d="M209 306L259 432L382 280Z" fill="#02424f" stroke="#02424f"></path><path d="M382 280L259 432L416 377Z" fill="#00101c" stroke="#00101c"></path><path d="M348 520L218 602L367 538Z" fill="#02424f" stroke="#02424f"></path><path d="M381 704L253 735L411 803Z" fill="#008674" stroke="#008674"></path><path d="M1675 792L1620 739L1580 795Z" fill="#007872" stroke="#007872"></path><path d="M1580 795L1620 739L1544 720Z" fill="#005d65" stroke="#005d65"></path><path d="M1603 505L1688 318L1615 290Z" fill="#008674" stroke="#008674"></path><path d="M1620 739L1678 624L1544 720Z" fill="#009473" stroke="#009473"></path><path d="M1791 423L1688 318L1603 505Z" fill="#062836" stroke="#062836"></path><path d="M1615 290L1724 113L1513 122Z" fill="#00101c" stroke="#00101c"></path><path d="M556 0L385 0L407 129Z" fill="#007872" stroke="#007872"></path><path d="M234 168L234 230L382 280Z" fill="#02424f" stroke="#02424f"></path><path d="M1241 1080L1379 1080L1223 951Z" fill="#00101c" stroke="#00101c"></path><path d="M1685 948L1675 792L1580 795Z" fill="#00101c" stroke="#00101c"></path><path d="M259 432L218 602L348 520Z" fill="#004f5b" stroke="#004f5b"></path><path d="M411 803L417 1012L556 968Z" fill="#061c29" stroke="#061c29"></path><path d="M218 602L253 735L381 704Z" fill="#053543" stroke="#053543"></path><path d="M234 168L382 280L407 129Z" fill="#053543" stroke="#053543"></path><path d="M259 432L177 446L218 602Z" fill="#061c29" stroke="#061c29"></path><path d="M234 230L209 306L382 280Z" fill="#062836" stroke="#062836"></path><path d="M265 838L417 1012L411 803Z" fill="#02424f" stroke="#02424f"></path><path d="M1620 739L1757 692L1678 624Z" fill="#00101c" stroke="#00101c"></path><path d="M1678 624L1791 423L1603 505Z" fill="#005d65" stroke="#005d65"></path><path d="M1685 948L1580 795L1501 907Z" fill="#061c29" stroke="#061c29"></path><path d="M417 1012L492 1080L556 968Z" fill="#004f5b" stroke="#004f5b"></path><path d="M385 0L234 168L407 129Z" fill="#053543" stroke="#053543"></path><path d="M135 232L137 317L209 306Z" fill="#008674" stroke="#008674"></path><path d="M137 317L177 446L209 306Z" fill="#02424f" stroke="#02424f"></path><path d="M209 306L177 446L259 432Z" fill="#005d65" stroke="#005d65"></path><path d="M253 735L265 838L411 803Z" fill="#02424f" stroke="#02424f"></path><path d="M146 815L265 838L253 735Z" fill="#007872" stroke="#007872"></path><path d="M182 665L253 735L218 602Z" fill="#007872" stroke="#007872"></path><path d="M163 579L182 665L218 602Z" fill="#062836" stroke="#062836"></path><path d="M177 446L163 579L218 602Z" fill="#008674" stroke="#008674"></path><path d="M1675 792L1757 692L1620 739Z" fill="#006b6d" stroke="#006b6d"></path><path d="M1838 645L1791 423L1678 624Z" fill="#02424f" stroke="#02424f"></path><path d="M1688 318L1765 248L1615 290Z" fill="#02424f" stroke="#02424f"></path><path d="M1791 401L1765 248L1688 318Z" fill="#02424f" stroke="#02424f"></path><path d="M1791 423L1791 401L1688 318Z" fill="#062836" stroke="#062836"></path><path d="M1765 248L1724 113L1615 290Z" fill="#009473" stroke="#009473"></path><path d="M1724 113L1668 0L1513 122Z" fill="#009473" stroke="#009473"></path><path d="M1379 1080L1528 1080L1403 962Z" fill="#02424f" stroke="#02424f"></path><path d="M1675 792L1785 794L1757 692Z" fill="#009473" stroke="#009473"></path><path d="M135 232L209 306L234 230Z" fill="#061c29" stroke="#061c29"></path><path d="M177 446L0 544L163 579Z" fill="#009473" stroke="#009473"></path><path d="M1765 248L1757 119L1724 113Z" fill="#00101c" stroke="#00101c"></path><path d="M1724 113L1743 0L1668 0Z" fill="#005d65" stroke="#005d65"></path><path d="M1920 128L1757 119L1765 248Z" fill="#007872" stroke="#007872"></path><path d="M256 983L417 1012L265 838Z" fill="#009473" stroke="#009473"></path><path d="M256 983L373 1080L417 1012Z" fill="#008674" stroke="#008674"></path><path d="M417 1012L373 1080L492 1080Z" fill="#004f5b" stroke="#004f5b"></path><path d="M120 98L135 232L234 168Z" fill="#005d65" stroke="#005d65"></path><path d="M234 168L135 232L234 230Z" fill="#008674" stroke="#008674"></path><path d="M1528 1080L1685 948L1501 907Z" fill="#061c29" stroke="#061c29"></path><path d="M385 0L222 0L234 168Z" fill="#007872" stroke="#007872"></path><path d="M1744 903L1785 794L1675 792Z" fill="#00101c" stroke="#00101c"></path><path d="M1757 692L1838 645L1678 624Z" fill="#062836" stroke="#062836"></path><path d="M146 815L256 983L265 838Z" fill="#009473" stroke="#009473"></path><path d="M1785 794L1838 645L1757 692Z" fill="#009473" stroke="#009473"></path><path d="M1791 423L1920 344L1791 401Z" fill="#004f5b" stroke="#004f5b"></path><path d="M1791 401L1920 344L1765 248Z" fill="#006b6d" stroke="#006b6d"></path><path d="M1685 948L1744 903L1675 792Z" fill="#006b6d" stroke="#006b6d"></path><path d="M1811 1080L1744 903L1685 948Z" fill="#062836" stroke="#062836"></path><path d="M0 770L146 815L182 665Z" fill="#008674" stroke="#008674"></path><path d="M182 665L146 815L253 735Z" fill="#02424f" stroke="#02424f"></path><path d="M0 544L182 665L163 579Z" fill="#02424f" stroke="#02424f"></path><path d="M0 450L177 446L137 317Z" fill="#006b6d" stroke="#006b6d"></path><path d="M1920 0L1743 0L1757 119Z" fill="#005d65" stroke="#005d65"></path><path d="M1757 119L1743 0L1724 113Z" fill="#007872" stroke="#007872"></path><path d="M222 0L120 98L234 168Z" fill="#004f5b" stroke="#004f5b"></path><path d="M0 319L0 450L137 317Z" fill="#02424f" stroke="#02424f"></path><path d="M76 1016L264 1080L256 983Z" fill="#007872" stroke="#007872"></path><path d="M256 983L264 1080L373 1080Z" fill="#006b6d" stroke="#006b6d"></path><path d="M1920 647L1920 506L1838 645Z" fill="#061c29" stroke="#061c29"></path><path d="M1838 645L1920 506L1791 423Z" fill="#005d65" stroke="#005d65"></path><path d="M1920 647L1838 645L1920 770Z" fill="#061c29" stroke="#061c29"></path><path d="M1920 506L1920 344L1791 423Z" fill="#009473" stroke="#009473"></path><path d="M0 319L137 317L0 259Z" fill="#009473" stroke="#009473"></path><path d="M0 450L0 544L177 446Z" fill="#005d65" stroke="#005d65"></path><path d="M146 815L76 1016L256 983Z" fill="#005d65" stroke="#005d65"></path><path d="M1920 770L1838 645L1785 794Z" fill="#02424f" stroke="#02424f"></path><path d="M222 0L105 0L120 98Z" fill="#062836" stroke="#062836"></path><path d="M0 259L137 317L135 232Z" fill="#007872" stroke="#007872"></path><path d="M1528 1080L1718 1080L1685 948Z" fill="#053543" stroke="#053543"></path><path d="M1920 842L1920 770L1785 794Z" fill="#062836" stroke="#062836"></path><path d="M1920 344L1920 244L1765 248Z" fill="#061c29" stroke="#061c29"></path><path d="M0 259L135 232L0 141Z" fill="#061c29" stroke="#061c29"></path><path d="M0 141L135 232L120 98Z" fill="#061c29" stroke="#061c29"></path><path d="M1920 842L1785 794L1744 903Z" fill="#004f5b" stroke="#004f5b"></path><path d="M1920 244L1920 128L1765 248Z" fill="#004f5b" stroke="#004f5b"></path><path d="M0 544L0 770L182 665Z" fill="#006b6d" stroke="#006b6d"></path><path d="M0 0L0 141L120 98Z" fill="#00101c" stroke="#00101c"></path><path d="M1920 974L1920 842L1744 903Z" fill="#005d65" stroke="#005d65"></path><path d="M0 770L0 815L146 815Z" fill="#061c29" stroke="#061c29"></path><path d="M1718 1080L1811 1080L1685 948Z" fill="#053543" stroke="#053543"></path><path d="M0 815L76 1016L146 815Z" fill="#005d65" stroke="#005d65"></path><path d="M1920 128L1920 0L1757 119Z" fill="#004f5b" stroke="#004f5b"></path><path d="M105 0L0 0L120 98Z" fill="#005d65" stroke="#005d65"></path><path d="M1811 1080L1920 974L1744 903Z" fill="#062836" stroke="#062836"></path><path d="M0 1006L67 1080L76 1016Z" fill="#007872" stroke="#007872"></path><path d="M76 1016L67 1080L264 1080Z" fill="#062836" stroke="#062836"></path><path d="M0 815L0 1006L76 1016Z" fill="#005d65" stroke="#005d65"></path><path d="M1811 1080L1920 1080L1920 974Z" fill="#02424f" stroke="#02424f"></path><path d="M0 1006L0 1080L67 1080Z" fill="#053543" stroke="#053543"></path></g></svg>