<svg id="visual" viewBox="0 0 1920 1080" width="1920" height="1080" xmlns="http://www.w3.org/2000/svg" xmlns:xlink="http://www.w3.org/1999/xlink" version="1.1"><path d="M0 120L175 152L349 163L524 98L698 77L873 163L1047 141L1222 131L1396 195L1571 77L1745 206L1920 141L1920 0L1745 0L1571 0L1396 0L1222 0L1047 0L873 0L698 0L524 0L349 0L175 0L0 0Z" fill="#e0f7f4"></path><path d="M0 282L175 411L349 433L524 217L698 357L873 282L1047 411L1222 325L1396 357L1571 303L1745 357L1920 411L1920 139L1745 204L1571 75L1396 193L1222 129L1047 139L873 161L698 75L524 96L349 161L175 150L0 118Z" fill="#b7eae2"></path><path d="M0 455L175 530L349 563L524 357L698 487L873 379L1047 595L1222 498L1396 455L1571 379L1745 444L1920 573L1920 409L1745 355L1571 301L1396 355L1222 323L1047 409L873 280L698 355L524 215L349 431L175 409L0 280Z" fill="#8ddccf"></path><path d="M0 735L175 714L349 930L524 735L698 865L873 800L1047 800L1222 671L1396 800L1571 681L1745 811L1920 779L1920 571L1745 442L1571 377L1396 453L1222 496L1047 593L873 377L698 485L524 355L349 561L175 528L0 453Z" fill="#5dcebb"></path><path d="M0 1081L175 1081L349 1081L524 1081L698 1081L873 1081L1047 1081L1222 1081L1396 1081L1571 1081L1745 1081L1920 1081L1920 777L1745 809L1571 679L1396 798L1222 669L1047 798L873 798L698 863L524 733L349 928L175 712L0 733Z" fill="#00bfa5"></path></svg>