<svg id="visual" viewBox="0 0 1920 1080" width="1920" height="1080" xmlns="http://www.w3.org/2000/svg" xmlns:xlink="http://www.w3.org/1999/xlink" version="1.1"><rect x="0" y="0" width="1920" height="1080" fill="#E0F7F4"></rect><defs><linearGradient id="grad1_0" x1="43.8%" y1="100%" x2="100%" y2="0%"><stop offset="14.444444444444446%" stop-color="#009473" stop-opacity="1"></stop><stop offset="85.55555555555554%" stop-color="#009473" stop-opacity="1"></stop></linearGradient></defs><defs><linearGradient id="grad1_1" x1="43.8%" y1="100%" x2="100%" y2="0%"><stop offset="14.444444444444446%" stop-color="#009473" stop-opacity="1"></stop><stop offset="85.55555555555554%" stop-color="#4fad95" stop-opacity="1"></stop></linearGradient></defs><defs><linearGradient id="grad1_2" x1="43.8%" y1="100%" x2="100%" y2="0%"><stop offset="14.444444444444446%" stop-color="#80c6b7" stop-opacity="1"></stop><stop offset="85.55555555555554%" stop-color="#4fad95" stop-opacity="1"></stop></linearGradient></defs><defs><linearGradient id="grad1_3" x1="43.8%" y1="100%" x2="100%" y2="0%"><stop offset="14.444444444444446%" stop-color="#80c6b7" stop-opacity="1"></stop><stop offset="85.55555555555554%" stop-color="#b0ded6" stop-opacity="1"></stop></linearGradient></defs><defs><linearGradient id="grad1_4" x1="43.8%" y1="100%" x2="100%" y2="0%"><stop offset="14.444444444444446%" stop-color="#e0f7f4" stop-opacity="1"></stop><stop offset="85.55555555555554%" stop-color="#b0ded6" stop-opacity="1"></stop></linearGradient></defs><defs><linearGradient id="grad2_0" x1="0%" y1="100%" x2="56.3%" y2="0%"><stop offset="14.444444444444446%" stop-color="#009473" stop-opacity="1"></stop><stop offset="85.55555555555554%" stop-color="#009473" stop-opacity="1"></stop></linearGradient></defs><defs><linearGradient id="grad2_1" x1="0%" y1="100%" x2="56.3%" y2="0%"><stop offset="14.444444444444446%" stop-color="#4fad95" stop-opacity="1"></stop><stop offset="85.55555555555554%" stop-color="#009473" stop-opacity="1"></stop></linearGradient></defs><defs><linearGradient id="grad2_2" x1="0%" y1="100%" x2="56.3%" y2="0%"><stop offset="14.444444444444446%" stop-color="#4fad95" stop-opacity="1"></stop><stop offset="85.55555555555554%" stop-color="#80c6b7" stop-opacity="1"></stop></linearGradient></defs><defs><linearGradient id="grad2_3" x1="0%" y1="100%" x2="56.3%" y2="0%"><stop offset="14.444444444444446%" stop-color="#b0ded6" stop-opacity="1"></stop><stop offset="85.55555555555554%" stop-color="#80c6b7" stop-opacity="1"></stop></linearGradient></defs><defs><linearGradient id="grad2_4" x1="0%" y1="100%" x2="56.3%" y2="0%"><stop offset="14.444444444444446%" stop-color="#b0ded6" stop-opacity="1"></stop><stop offset="85.55555555555554%" stop-color="#e0f7f4" stop-opacity="1"></stop></linearGradient></defs><g transform="translate(1920, 1080)"><path d="M-756 0C-703.7 -82.4 -651.3 -164.9 -620.8 -257.2C-590.4 -349.4 -581.7 -451.5 -530.3 -530.3C-478.9 -609.2 -384.8 -664.7 -289.3 -698.5C-193.8 -732.2 -96.9 -744.1 0 -756L0 0Z" fill="#c8ebe5"></path><path d="M-604.8 0C-562.9 -66 -521.1 -131.9 -496.7 -205.7C-472.3 -279.5 -465.4 -361.2 -424.3 -424.3C-383.2 -487.3 -307.9 -531.8 -231.4 -558.8C-155 -585.8 -77.5 -595.3 0 -604.8L0 0Z" fill="#98d2c7"></path><path d="M-453.6 0C-422.2 -49.5 -390.8 -98.9 -372.5 -154.3C-354.2 -209.7 -349 -270.9 -318.2 -318.2C-287.4 -365.5 -230.9 -398.8 -173.6 -419.1C-116.3 -439.3 -58.1 -446.5 0 -453.6L0 0Z" fill="#68b9a6"></path><path d="M-302.4 0C-281.5 -33 -260.5 -66 -248.3 -102.9C-236.1 -139.8 -232.7 -180.6 -212.1 -212.1C-191.6 -243.7 -153.9 -265.9 -115.7 -279.4C-77.5 -292.9 -38.8 -297.6 0 -302.4L0 0Z" fill="#33a084"></path><path d="M-151.2 0C-140.7 -16.5 -130.3 -33 -124.2 -51.4C-118.1 -69.9 -116.3 -90.3 -106.1 -106.1C-95.8 -121.8 -77 -132.9 -57.9 -139.7C-38.8 -146.4 -19.4 -148.8 0 -151.2L0 0Z" fill="#009473"></path></g><g transform="translate(0, 0)"><path d="M756 0C751.6 105.1 747.2 210.2 698.5 289.3C649.7 368.4 556.7 421.4 481.5 481.5C406.4 541.7 349 609 271.7 656C194.4 702.9 97.2 729.4 0 756L0 0Z" fill="#c8ebe5"></path><path d="M604.8 0C601.3 84.1 597.7 168.2 558.8 231.4C519.8 294.7 445.4 337.1 385.2 385.2C325.1 433.4 279.2 487.2 217.4 524.8C155.5 562.3 77.8 583.6 0 604.8L0 0Z" fill="#98d2c7"></path><path d="M453.6 0C451 63.1 448.3 126.1 419.1 173.6C389.8 221 334 252.8 288.9 288.9C243.8 325 209.4 365.4 163 393.6C116.7 421.7 58.3 437.7 0 453.6L0 0Z" fill="#68b9a6"></path><path d="M302.4 0C300.6 42 298.9 84.1 279.4 115.7C259.9 147.3 222.7 168.6 192.6 192.6C162.5 216.7 139.6 243.6 108.7 262.4C77.8 281.2 38.9 291.8 0 302.4L0 0Z" fill="#33a084"></path><path d="M151.2 0C150.3 21 149.4 42 139.7 57.9C129.9 73.7 111.3 84.3 96.3 96.3C81.3 108.3 69.8 121.8 54.3 131.2C38.9 140.6 19.4 145.9 0 151.2L0 0Z" fill="#009473"></path></g></svg>