<svg id="visual" viewBox="0 0 1920 1080" width="1920" height="1080" xmlns="http://www.w3.org/2000/svg" xmlns:xlink="http://www.w3.org/1999/xlink" version="1.1"><rect x="0" y="0" width="1920" height="1080" fill="#E0F7F4"></rect><path d="M0 640L45.7 648.7C91.3 657.3 182.7 674.7 274.2 700.8C365.7 727 457.3 762 548.8 771.7C640.3 781.3 731.7 765.7 823 741.3C914.3 717 1005.7 684 1097 693C1188.3 702 1279.7 753 1371.2 753.3C1462.7 753.7 1554.3 703.3 1645.8 676.7C1737.3 650 1828.7 647 1874.3 645.5L1920 644L1920 1081L1874.3 1081C1828.7 1081 1737.3 1081 1645.8 1081C1554.3 1081 1462.7 1081 1371.2 1081C1279.7 1081 1188.3 1081 1097 1081C1005.7 1081 914.3 1081 823 1081C731.7 1081 640.3 1081 548.8 1081C457.3 1081 365.7 1081 274.2 1081C182.7 1081 91.3 1081 45.7 1081L0 1081Z" fill="#0a584e"></path><path d="M0 726L45.7 747.7C91.3 769.3 182.7 812.7 274.2 814.2C365.7 815.7 457.3 775.3 548.8 750.8C640.3 726.3 731.7 717.7 823 722.7C914.3 727.7 1005.7 746.3 1097 757.3C1188.3 768.3 1279.7 771.7 1371.2 764C1462.7 756.3 1554.3 737.7 1645.8 743.5C1737.3 749.3 1828.7 779.7 1874.3 794.8L1920 810L1920 1081L1874.3 1081C1828.7 1081 1737.3 1081 1645.8 1081C1554.3 1081 1462.7 1081 1371.2 1081C1279.7 1081 1188.3 1081 1097 1081C1005.7 1081 914.3 1081 823 1081C731.7 1081 640.3 1081 548.8 1081C457.3 1081 365.7 1081 274.2 1081C182.7 1081 91.3 1081 45.7 1081L0 1081Z" fill="#097163"></path><path d="M0 810L45.7 819.5C91.3 829 182.7 848 274.2 857.5C365.7 867 457.3 867 548.8 866.3C640.3 865.7 731.7 864.3 823 859.8C914.3 855.3 1005.7 847.7 1097 847.3C1188.3 847 1279.7 854 1371.2 846.8C1462.7 839.7 1554.3 818.3 1645.8 826.3C1737.3 834.3 1828.7 871.7 1874.3 890.3L1920 909L1920 1081L1874.3 1081C1828.7 1081 1737.3 1081 1645.8 1081C1554.3 1081 1462.7 1081 1371.2 1081C1279.7 1081 1188.3 1081 1097 1081C1005.7 1081 914.3 1081 823 1081C731.7 1081 640.3 1081 548.8 1081C457.3 1081 365.7 1081 274.2 1081C182.7 1081 91.3 1081 45.7 1081L0 1081Z" fill="#068a79"></path><path d="M0 871L45.7 878.8C91.3 886.7 182.7 902.3 274.2 903C365.7 903.7 457.3 889.3 548.8 888C640.3 886.7 731.7 898.3 823 900.8C914.3 903.3 1005.7 896.7 1097 891C1188.3 885.3 1279.7 880.7 1371.2 893.8C1462.7 907 1554.3 938 1645.8 950.5C1737.3 963 1828.7 957 1874.3 954L1920 951L1920 1081L1874.3 1081C1828.7 1081 1737.3 1081 1645.8 1081C1554.3 1081 1462.7 1081 1371.2 1081C1279.7 1081 1188.3 1081 1097 1081C1005.7 1081 914.3 1081 823 1081C731.7 1081 640.3 1081 548.8 1081C457.3 1081 365.7 1081 274.2 1081C182.7 1081 91.3 1081 45.7 1081L0 1081Z" fill="#03a48f"></path><path d="M0 958L45.7 958.2C91.3 958.3 182.7 958.7 274.2 970.3C365.7 982 457.3 1005 548.8 1008C640.3 1011 731.7 994 823 994.3C914.3 994.7 1005.7 1012.3 1097 1021.3C1188.3 1030.3 1279.7 1030.7 1371.2 1029.3C1462.7 1028 1554.3 1025 1645.8 1025.2C1737.3 1025.3 1828.7 1028.7 1874.3 1030.3L1920 1032L1920 1081L1874.3 1081C1828.7 1081 1737.3 1081 1645.8 1081C1554.3 1081 1462.7 1081 1371.2 1081C1279.7 1081 1188.3 1081 1097 1081C1005.7 1081 914.3 1081 823 1081C731.7 1081 640.3 1081 548.8 1081C457.3 1081 365.7 1081 274.2 1081C182.7 1081 91.3 1081 45.7 1081L0 1081Z" fill="#00bfa5"></path></svg>