<svg id="visual" viewBox="0 0 1920 1080" width="1920" height="1080" xmlns="http://www.w3.org/2000/svg" xmlns:xlink="http://www.w3.org/1999/xlink" version="1.1"><rect x="0" y="0" width="1920" height="1080" fill="#E0F7F4"></rect><path d="M0 829L35.5 822.3C71 815.7 142 802.3 213.2 810.7C284.3 819 355.7 849 426.8 869.7C498 890.3 569 901.7 640 874.8C711 848 782 783 853.2 759.2C924.3 735.3 995.7 752.7 1066.8 793C1138 833.3 1209 896.7 1280 904.8C1351 913 1422 866 1493.2 835.7C1564.3 805.3 1635.7 791.7 1706.8 795.7C1778 799.7 1849 821.3 1884.5 832.2L1920 843L1920 1081L1884.5 1081C1849 1081 1778 1081 1706.8 1081C1635.7 1081 1564.3 1081 1493.2 1081C1422 1081 1351 1081 1280 1081C1209 1081 1138 1081 1066.8 1081C995.7 1081 924.3 1081 853.2 1081C782 1081 711 1081 640 1081C569 1081 498 1081 426.8 1081C355.7 1081 284.3 1081 213.2 1081C142 1081 71 1081 35.5 1081L0 1081Z" fill="#0A584E" stroke-linecap="round" stroke-linejoin="miter"></path></svg>