<svg id="ejsozGTtOf51" xmlns="http://www.w3.org/2000/svg" xmlns:xlink="http://www.w3.org/1999/xlink" viewBox="0 0 512 512" shape-rendering="geometricPrecision" text-rendering="geometricPrecision" project-id="d8fed61ccf044a06b0342d57524cf691" export-id="5f2310ef12b7483cb2b1728c6ece901f" cached="true" width="512" height="512"><rect width="467.268444" height="467.268444" rx="45" ry="45" transform="matrix(1.027112 0 0 1.027117 16.031487 16.030319)" fill="#fff" stroke-width="0"/><g transform="matrix(.888323 0 0 0.888325 28.19459 28.284252)"><path d="M137.99,179.049301c18.693779,9.167354,38.031269,27.404025,49.561337,46.619122c3.510314,5.850012,8.077731,16.29719,9.959395,22.086771c1.341717,4.128249,1.701101,6.736376,2.322116,9.199182.843764,3.346179.535718,5.005353.471289,6.230547-13.914564,4.940074-37.47692,4.560836-47.699235.340611-11.9725-3.182017-30.075833-16.315082-36.155732-26.32616-6.305811-6.919255-15.375887-26.199502-18.206078-38.463545-1.153299-7.863312-5.593608-22.170948-8.632929-28.890396-1.173585-4.20985-6.644614-13.597915-10.598844-18.718926c10.44664-2.877984,35.692262-3.669409,50.088083-2.478761c15.353358.726729,40.571439,8.312777,50.942829,14.701621c10.513689,5.283739,25.574658,19.338973,29.061345,29.061345c4.953304,8.73501,7.227604,26.342767,4.7011,35.215513-.4726,3.078602-1.987006,7.691401-3.162558,8.974827-6.238523-12.93016-18.698552-26.613593-25.493141-31.686512-11.2655-9.916124-34.837269-22.714058-47.158977-25.865239Z" fill="#01bfa5" stroke-width="1.024"/><path d="M401.507741,70.975748c-51.593513,15.999394-120.994254,72.844654-134.631853,117.433713-9.571983-17.482253-9.009142-56.461084,3.525768-78.643401c4.203177-10.226247,18.834163-29.255573,28.435323-38.509552C328.188778,35.952984,425.972623,2.586954,497.273303,7.040795C486.4668,20.580714,468.915178,56.41176,463.052396,91.937908c-16.145236,74.029103-68.464247,136.141018-133.834167,141.911027-12.595905.912375-33.907896.00658-42.036607-2.594758-5.828261-50.194252,58.191743-127.338479,114.326119-160.278429Z" fill="#01bfa5" stroke-width="1.024"/><path d="M138.351,379.866142c3.93511-7.973273,15.347977-21.773791,22.327826-28.325267.607053-.494003,1.441766-1.499359,1.604192-2.027023.228088-.653094-.144632-1.761583-.584814-2.278755-22.150738-16.889157-56.469553-52.465255-71.516744-71.549315-12.344225-15.636115-27.935719-38.607547-30.101873-53.440389-1.871555-6.365821-3.100551-19.704915-3.016522-26.837769-.066976-6.494966,1.905053-19.914875,5.102055-27.875923c2.573237-8.612921,12.43663-23.557015,19.516244-30.007189c9.154939-10.145703,31.810648-20.99417,45.43505-21.444726c9.717077-.820149,26.795769-.32388,30.31481.353018c11.136002,2.28573,24.053677,7.846997,29.609372,11.122534c11.501967,5.325798,29.672384,21.428343,37.725296,31.142613c3.00882-7.797678,11.981289-22.894408,18.109493-30.18249-9.144391-10.282104-29.835231-27.636163-41.985194-34.32695-14.842137-8.685303-44.263366-18.962131-60.455075-17.749106-10.828492-.758144-34.668769,1.649208-40.90403,5.225625-12.108776,2.776416-32.930101,14.6358-42.407524,22.86211-9.766765,7.74477-24.689241,25.859816-28.888429,37.338559-5.179068,8.482654-10.421036,25.764814-10.820474,34.174027-2.37146,12.340798-2.290931,33.2385-.390293,42.346755c1.506189,13.157231,9.251241,35.464715,15.221415,44.883658c7.987224,15.81695,29.997653,45.032434,43.322487,59.129341c12.687164,14.644011,43.370308,44.186097,60.885658,59.324487.348917.238858.924135.185789,1.130095-.248526l.766979-1.609299Z" transform="translate(0 0.000001)" fill="#0a584e" stroke-width="1.024"/><path d="M216.668038,306.234937c.571443-.353748,1.180473-.717969,1.823415-1.091062c10.754828-6.240931,30.998262-14.964288,43.521869-18.672413.304734-.090229.604897-.177489.900242-.261671.615825-.153564.978012-.250591.900319-.251112-9.369814-20.150357-16.893758-79.055803-14.135532-119.49875.095534-.325288-.016888-.230443-.653157.916292-.214598.304916-.428711.612957-.642322.924069-22.283585,32.454657-39.110329,98.327023-32.117018,135.926154.042074.226209.08501.451396.128813.675545.183787.905177.277561,1.362168.273371,1.332948Z" fill="#0a584e" stroke-width="1.024" stroke-linecap="round" stroke-linejoin="round"/><path d="M274.937268,441.992294l-36.980471-33.358989-28.919389,31.581763l35.560376,22.538041c5.448159-6.484145,20.31944-16.993434,30.339484-20.760815Z" fill="#0a584e" stroke-width="1.024"/><path d="M244.621196,462.780302l-25.445569-16.198771c22.332352-38.64076,78.72192-73.050856,111.207356-85.980285c22.363409-9.065732,55.56791-26.04074,73.249158-35.949687-11.956126,16.081355-40.509487,45.322807-56.71689,59.587426-23.29203,21.46839-73.819301,60.851732-102.294055,78.541317Z" transform="translate(.000001 0)" fill="#0b584b" stroke-width="1.024"/><path d="M174.016129,506.045897c-17.46349-4.416882-35.883822-31.996481-34.932712-60.179421-.831394-31.30037,29.374818-72.302182,53.853716-89.179022c19.024462-15.72291,65.616123-40.481734,92.89926-49.77181c34.556421-13.425473,79.173439-32.352697,87.211013-37.212218c24.391031-13.333635,45.050422-31.541767,57.74679-56.760202c16.813468-32.961479,29.935074-49.790221,33.960267-54.662975c5.689273,12.730923,6.770498,40.226926,3.51598,54.933159-3.612573,21.947207-14.712137,46.750101-40.320874,70.803455-14.960646,13.395324-47.373976,31.703404-65.234598,37.186723-42.949674,16.027172-91.568066,37.653438-102.851846,44.358678-12.583208,6.721053-27.721747,17.066948-40.498851,28.331052-13.557703,11.952268-24.539162,24.855206-29.947627,32.576295-8.312601,11.033873-17.574823,34.23765-18.720543,46.384022-1.546762,9.711354-.272358,26.457445,3.320025,33.192264Z" fill="#0b584e" stroke-width="1.024"/></g></svg>
